%TF.GenerationSoftware,KiCad,Pcbnew,10.0.6*%
%TF.CreationDate,2026-09-17T18:06:40-07:00*%
%TF.ProjectId,Analog-Signal-Conditioning-PCB,416e616c-6f67-42d5-9369-676e616c2d43,rev?*%
%TF.SameCoordinates,Original*%
%TF.FileFunction,Legend,Top*%
%TF.FilePolarity,Positive*%
%FSLAX46Y46*%
G04 Gerber Fmt 4.6, Leading zero omitted, Abs format (unit mm)*
G04 Created by KiCad (PCBNEW 10.0.6) date 2026-09-17 18:06:40*
%MOMM*%
%LPD*%
G01*
G04 APERTURE LIST*
%ADD10C,0.150000*%
%ADD11C,0.120000*%
G04 APERTURE END LIST*
D10*
X122454819Y-83166666D02*
X121978628Y-83499999D01*
X122454819Y-83738094D02*
X121454819Y-83738094D01*
X121454819Y-83738094D02*
X121454819Y-83357142D01*
X121454819Y-83357142D02*
X121502438Y-83261904D01*
X121502438Y-83261904D02*
X121550057Y-83214285D01*
X121550057Y-83214285D02*
X121645295Y-83166666D01*
X121645295Y-83166666D02*
X121788152Y-83166666D01*
X121788152Y-83166666D02*
X121883390Y-83214285D01*
X121883390Y-83214285D02*
X121931009Y-83261904D01*
X121931009Y-83261904D02*
X121978628Y-83357142D01*
X121978628Y-83357142D02*
X121978628Y-83738094D01*
X121550057Y-82785713D02*
X121502438Y-82738094D01*
X121502438Y-82738094D02*
X121454819Y-82642856D01*
X121454819Y-82642856D02*
X121454819Y-82404761D01*
X121454819Y-82404761D02*
X121502438Y-82309523D01*
X121502438Y-82309523D02*
X121550057Y-82261904D01*
X121550057Y-82261904D02*
X121645295Y-82214285D01*
X121645295Y-82214285D02*
X121740533Y-82214285D01*
X121740533Y-82214285D02*
X121883390Y-82261904D01*
X121883390Y-82261904D02*
X122454819Y-82833332D01*
X122454819Y-82833332D02*
X122454819Y-82214285D01*
X110166666Y-96954819D02*
X110166666Y-97669104D01*
X110166666Y-97669104D02*
X110119047Y-97811961D01*
X110119047Y-97811961D02*
X110023809Y-97907200D01*
X110023809Y-97907200D02*
X109880952Y-97954819D01*
X109880952Y-97954819D02*
X109785714Y-97954819D01*
X110547619Y-96954819D02*
X111166666Y-96954819D01*
X111166666Y-96954819D02*
X110833333Y-97335771D01*
X110833333Y-97335771D02*
X110976190Y-97335771D01*
X110976190Y-97335771D02*
X111071428Y-97383390D01*
X111071428Y-97383390D02*
X111119047Y-97431009D01*
X111119047Y-97431009D02*
X111166666Y-97526247D01*
X111166666Y-97526247D02*
X111166666Y-97764342D01*
X111166666Y-97764342D02*
X111119047Y-97859580D01*
X111119047Y-97859580D02*
X111071428Y-97907200D01*
X111071428Y-97907200D02*
X110976190Y-97954819D01*
X110976190Y-97954819D02*
X110690476Y-97954819D01*
X110690476Y-97954819D02*
X110595238Y-97907200D01*
X110595238Y-97907200D02*
X110547619Y-97859580D01*
X149166666Y-78834819D02*
X149166666Y-79549104D01*
X149166666Y-79549104D02*
X149119047Y-79691961D01*
X149119047Y-79691961D02*
X149023809Y-79787200D01*
X149023809Y-79787200D02*
X148880952Y-79834819D01*
X148880952Y-79834819D02*
X148785714Y-79834819D01*
X149595238Y-78930057D02*
X149642857Y-78882438D01*
X149642857Y-78882438D02*
X149738095Y-78834819D01*
X149738095Y-78834819D02*
X149976190Y-78834819D01*
X149976190Y-78834819D02*
X150071428Y-78882438D01*
X150071428Y-78882438D02*
X150119047Y-78930057D01*
X150119047Y-78930057D02*
X150166666Y-79025295D01*
X150166666Y-79025295D02*
X150166666Y-79120533D01*
X150166666Y-79120533D02*
X150119047Y-79263390D01*
X150119047Y-79263390D02*
X149547619Y-79834819D01*
X149547619Y-79834819D02*
X150166666Y-79834819D01*
X141039580Y-86704166D02*
X141087200Y-86751785D01*
X141087200Y-86751785D02*
X141134819Y-86894642D01*
X141134819Y-86894642D02*
X141134819Y-86989880D01*
X141134819Y-86989880D02*
X141087200Y-87132737D01*
X141087200Y-87132737D02*
X140991961Y-87227975D01*
X140991961Y-87227975D02*
X140896723Y-87275594D01*
X140896723Y-87275594D02*
X140706247Y-87323213D01*
X140706247Y-87323213D02*
X140563390Y-87323213D01*
X140563390Y-87323213D02*
X140372914Y-87275594D01*
X140372914Y-87275594D02*
X140277676Y-87227975D01*
X140277676Y-87227975D02*
X140182438Y-87132737D01*
X140182438Y-87132737D02*
X140134819Y-86989880D01*
X140134819Y-86989880D02*
X140134819Y-86894642D01*
X140134819Y-86894642D02*
X140182438Y-86751785D01*
X140182438Y-86751785D02*
X140230057Y-86704166D01*
X141134819Y-85751785D02*
X141134819Y-86323213D01*
X141134819Y-86037499D02*
X140134819Y-86037499D01*
X140134819Y-86037499D02*
X140277676Y-86132737D01*
X140277676Y-86132737D02*
X140372914Y-86227975D01*
X140372914Y-86227975D02*
X140420533Y-86323213D01*
X120454819Y-83166666D02*
X119978628Y-83499999D01*
X120454819Y-83738094D02*
X119454819Y-83738094D01*
X119454819Y-83738094D02*
X119454819Y-83357142D01*
X119454819Y-83357142D02*
X119502438Y-83261904D01*
X119502438Y-83261904D02*
X119550057Y-83214285D01*
X119550057Y-83214285D02*
X119645295Y-83166666D01*
X119645295Y-83166666D02*
X119788152Y-83166666D01*
X119788152Y-83166666D02*
X119883390Y-83214285D01*
X119883390Y-83214285D02*
X119931009Y-83261904D01*
X119931009Y-83261904D02*
X119978628Y-83357142D01*
X119978628Y-83357142D02*
X119978628Y-83738094D01*
X120454819Y-82214285D02*
X120454819Y-82785713D01*
X120454819Y-82499999D02*
X119454819Y-82499999D01*
X119454819Y-82499999D02*
X119597676Y-82595237D01*
X119597676Y-82595237D02*
X119692914Y-82690475D01*
X119692914Y-82690475D02*
X119740533Y-82785713D01*
X121359580Y-103666666D02*
X121407200Y-103714285D01*
X121407200Y-103714285D02*
X121454819Y-103857142D01*
X121454819Y-103857142D02*
X121454819Y-103952380D01*
X121454819Y-103952380D02*
X121407200Y-104095237D01*
X121407200Y-104095237D02*
X121311961Y-104190475D01*
X121311961Y-104190475D02*
X121216723Y-104238094D01*
X121216723Y-104238094D02*
X121026247Y-104285713D01*
X121026247Y-104285713D02*
X120883390Y-104285713D01*
X120883390Y-104285713D02*
X120692914Y-104238094D01*
X120692914Y-104238094D02*
X120597676Y-104190475D01*
X120597676Y-104190475D02*
X120502438Y-104095237D01*
X120502438Y-104095237D02*
X120454819Y-103952380D01*
X120454819Y-103952380D02*
X120454819Y-103857142D01*
X120454819Y-103857142D02*
X120502438Y-103714285D01*
X120502438Y-103714285D02*
X120550057Y-103666666D01*
X120550057Y-103285713D02*
X120502438Y-103238094D01*
X120502438Y-103238094D02*
X120454819Y-103142856D01*
X120454819Y-103142856D02*
X120454819Y-102904761D01*
X120454819Y-102904761D02*
X120502438Y-102809523D01*
X120502438Y-102809523D02*
X120550057Y-102761904D01*
X120550057Y-102761904D02*
X120645295Y-102714285D01*
X120645295Y-102714285D02*
X120740533Y-102714285D01*
X120740533Y-102714285D02*
X120883390Y-102761904D01*
X120883390Y-102761904D02*
X121454819Y-103333332D01*
X121454819Y-103333332D02*
X121454819Y-102714285D01*
X110166666Y-78702319D02*
X110166666Y-79416604D01*
X110166666Y-79416604D02*
X110119047Y-79559461D01*
X110119047Y-79559461D02*
X110023809Y-79654700D01*
X110023809Y-79654700D02*
X109880952Y-79702319D01*
X109880952Y-79702319D02*
X109785714Y-79702319D01*
X111166666Y-79702319D02*
X110595238Y-79702319D01*
X110880952Y-79702319D02*
X110880952Y-78702319D01*
X110880952Y-78702319D02*
X110785714Y-78845176D01*
X110785714Y-78845176D02*
X110690476Y-78940414D01*
X110690476Y-78940414D02*
X110595238Y-78988033D01*
X130263095Y-78189819D02*
X130263095Y-78999342D01*
X130263095Y-78999342D02*
X130310714Y-79094580D01*
X130310714Y-79094580D02*
X130358333Y-79142200D01*
X130358333Y-79142200D02*
X130453571Y-79189819D01*
X130453571Y-79189819D02*
X130644047Y-79189819D01*
X130644047Y-79189819D02*
X130739285Y-79142200D01*
X130739285Y-79142200D02*
X130786904Y-79094580D01*
X130786904Y-79094580D02*
X130834523Y-78999342D01*
X130834523Y-78999342D02*
X130834523Y-78189819D01*
X131834523Y-79189819D02*
X131263095Y-79189819D01*
X131548809Y-79189819D02*
X131548809Y-78189819D01*
X131548809Y-78189819D02*
X131453571Y-78332676D01*
X131453571Y-78332676D02*
X131358333Y-78427914D01*
X131358333Y-78427914D02*
X131263095Y-78475533D01*
X141104819Y-81166666D02*
X140628628Y-81499999D01*
X141104819Y-81738094D02*
X140104819Y-81738094D01*
X140104819Y-81738094D02*
X140104819Y-81357142D01*
X140104819Y-81357142D02*
X140152438Y-81261904D01*
X140152438Y-81261904D02*
X140200057Y-81214285D01*
X140200057Y-81214285D02*
X140295295Y-81166666D01*
X140295295Y-81166666D02*
X140438152Y-81166666D01*
X140438152Y-81166666D02*
X140533390Y-81214285D01*
X140533390Y-81214285D02*
X140581009Y-81261904D01*
X140581009Y-81261904D02*
X140628628Y-81357142D01*
X140628628Y-81357142D02*
X140628628Y-81738094D01*
X140104819Y-80833332D02*
X140104819Y-80214285D01*
X140104819Y-80214285D02*
X140485771Y-80547618D01*
X140485771Y-80547618D02*
X140485771Y-80404761D01*
X140485771Y-80404761D02*
X140533390Y-80309523D01*
X140533390Y-80309523D02*
X140581009Y-80261904D01*
X140581009Y-80261904D02*
X140676247Y-80214285D01*
X140676247Y-80214285D02*
X140914342Y-80214285D01*
X140914342Y-80214285D02*
X141009580Y-80261904D01*
X141009580Y-80261904D02*
X141057200Y-80309523D01*
X141057200Y-80309523D02*
X141104819Y-80404761D01*
X141104819Y-80404761D02*
X141104819Y-80690475D01*
X141104819Y-80690475D02*
X141057200Y-80785713D01*
X141057200Y-80785713D02*
X141009580Y-80833332D01*
%TO.C,R2*%
D11*
X124235000Y-83227064D02*
X124235000Y-82772936D01*
X122765000Y-83227064D02*
X122765000Y-82772936D01*
%TO.C,J3*%
X105380000Y-100247500D02*
X115620000Y-100247500D01*
X105380000Y-107367500D02*
X115620000Y-107367500D01*
X105380000Y-109487500D02*
X105380000Y-100247500D01*
X107700000Y-109487500D02*
X105380000Y-109487500D01*
X115620000Y-100247500D02*
X115620000Y-109487500D01*
X115620000Y-109487500D02*
X108300000Y-109487500D01*
X109000000Y-102167500D02*
G75*
G02*
X107000000Y-102167500I-1000000J0D01*
G01*
X107000000Y-102167500D02*
G75*
G02*
X109000000Y-102167500I1000000J0D01*
G01*
X114000000Y-102167500D02*
G75*
G02*
X112000000Y-102167500I-1000000J0D01*
G01*
X112000000Y-102167500D02*
G75*
G02*
X114000000Y-102167500I1000000J0D01*
G01*
X108000000Y-109487500D02*
X108440000Y-110097500D01*
X107560000Y-110097500D01*
X108000000Y-109487500D01*
G36*
X108440000Y-110097500D02*
G01*
X107560000Y-110097500D01*
X108000000Y-109487500D01*
X108440000Y-110097500D01*
G37*
%TO.C,J2*%
X144380000Y-80380000D02*
X154620000Y-80380000D01*
X144380000Y-87500000D02*
X154620000Y-87500000D01*
X144380000Y-89620000D02*
X144380000Y-80380000D01*
X146700000Y-89620000D02*
X144380000Y-89620000D01*
X154620000Y-80380000D02*
X154620000Y-89620000D01*
X154620000Y-89620000D02*
X147300000Y-89620000D01*
X148000000Y-82300000D02*
G75*
G02*
X146000000Y-82300000I-1000000J0D01*
G01*
X146000000Y-82300000D02*
G75*
G02*
X148000000Y-82300000I1000000J0D01*
G01*
X153000000Y-82300000D02*
G75*
G02*
X151000000Y-82300000I-1000000J0D01*
G01*
X151000000Y-82300000D02*
G75*
G02*
X153000000Y-82300000I1000000J0D01*
G01*
X147000000Y-89620000D02*
X147440000Y-90230000D01*
X146560000Y-90230000D01*
X147000000Y-89620000D01*
G36*
X147440000Y-90230000D02*
G01*
X146560000Y-90230000D01*
X147000000Y-89620000D01*
X147440000Y-90230000D01*
G37*
%TO.C,C1*%
X139735000Y-86276248D02*
X139735000Y-86798752D01*
X138265000Y-86276248D02*
X138265000Y-86798752D01*
%TO.C,R1*%
X119235000Y-82772936D02*
X119235000Y-83227064D01*
X117765000Y-82772936D02*
X117765000Y-83227064D01*
%TO.C,C2*%
X120735000Y-99738748D02*
X120735000Y-100261252D01*
X119265000Y-99738748D02*
X119265000Y-100261252D01*
%TO.C,J1*%
X105380000Y-80247500D02*
X115620000Y-80247500D01*
X105380000Y-87367500D02*
X115620000Y-87367500D01*
X105380000Y-89487500D02*
X105380000Y-80247500D01*
X107700000Y-89487500D02*
X105380000Y-89487500D01*
X115620000Y-80247500D02*
X115620000Y-89487500D01*
X115620000Y-89487500D02*
X108300000Y-89487500D01*
X109000000Y-82167500D02*
G75*
G02*
X107000000Y-82167500I-1000000J0D01*
G01*
X107000000Y-82167500D02*
G75*
G02*
X109000000Y-82167500I1000000J0D01*
G01*
X114000000Y-82167500D02*
G75*
G02*
X112000000Y-82167500I-1000000J0D01*
G01*
X112000000Y-82167500D02*
G75*
G02*
X114000000Y-82167500I1000000J0D01*
G01*
X108000000Y-89487500D02*
X108440000Y-90097500D01*
X107560000Y-90097500D01*
X108000000Y-89487500D01*
G36*
X108440000Y-90097500D02*
G01*
X107560000Y-90097500D01*
X108000000Y-89487500D01*
X108440000Y-90097500D01*
G37*
%TO.C,U1*%
X128965000Y-79575000D02*
X133085000Y-79575000D01*
X128965000Y-79670000D02*
X128965000Y-79575000D01*
X128965000Y-84695000D02*
X128965000Y-84600000D01*
X133085000Y-79575000D02*
X133085000Y-79670000D01*
X133085000Y-84600000D02*
X133085000Y-84695000D01*
X133085000Y-84695000D02*
X128965000Y-84695000D01*
X128425000Y-79665000D02*
X128185000Y-79335000D01*
X128665000Y-79335000D01*
X128425000Y-79665000D01*
G36*
X128425000Y-79665000D02*
G01*
X128185000Y-79335000D01*
X128665000Y-79335000D01*
X128425000Y-79665000D01*
G37*
%TO.C,R3*%
X139735000Y-80772936D02*
X139735000Y-81227064D01*
X138265000Y-80772936D02*
X138265000Y-81227064D01*
%TD*%
M02*
