%TF.GenerationSoftware,KiCad,Pcbnew,10.0.6*%
%TF.CreationDate,2026-09-17T18:06:39-07:00*%
%TF.ProjectId,Analog-Signal-Conditioning-PCB,416e616c-6f67-42d5-9369-676e616c2d43,rev?*%
%TF.SameCoordinates,Original*%
%TF.FileFunction,Copper,L1,Top*%
%TF.FilePolarity,Positive*%
%FSLAX46Y46*%
G04 Gerber Fmt 4.6, Leading zero omitted, Abs format (unit mm)*
G04 Created by KiCad (PCBNEW 10.0.6) date 2026-09-17 18:06:39*
%MOMM*%
%LPD*%
G01*
G04 APERTURE LIST*
G04 Aperture macros list*
%AMRoundRect*
0 Rectangle with rounded corners*
0 $1 Rounding radius*
0 $2 $3 $4 $5 $6 $7 $8 $9 X,Y pos of 4 corners*
0 Add a 4 corners polygon primitive as box body*
4,1,4,$2,$3,$4,$5,$6,$7,$8,$9,$2,$3,0*
0 Add four circle primitives for the rounded corners*
1,1,$1+$1,$2,$3*
1,1,$1+$1,$4,$5*
1,1,$1+$1,$6,$7*
1,1,$1+$1,$8,$9*
0 Add four rect primitives between the rounded corners*
20,1,$1+$1,$2,$3,$4,$5,0*
20,1,$1+$1,$4,$5,$6,$7,0*
20,1,$1+$1,$6,$7,$8,$9,0*
20,1,$1+$1,$8,$9,$2,$3,0*%
G04 Aperture macros list end*
%TA.AperFunction,SMDPad,CuDef*%
%ADD10RoundRect,0.250000X0.450000X-0.350000X0.450000X0.350000X-0.450000X0.350000X-0.450000X-0.350000X0*%
%TD*%
%TA.AperFunction,ComponentPad*%
%ADD11RoundRect,0.249999X-1.250001X-1.250001X1.250001X-1.250001X1.250001X1.250001X-1.250001X1.250001X0*%
%TD*%
%TA.AperFunction,ComponentPad*%
%ADD12C,3.000000*%
%TD*%
%TA.AperFunction,SMDPad,CuDef*%
%ADD13RoundRect,0.250000X-0.475000X0.337500X-0.475000X-0.337500X0.475000X-0.337500X0.475000X0.337500X0*%
%TD*%
%TA.AperFunction,SMDPad,CuDef*%
%ADD14RoundRect,0.250000X-0.450000X0.350000X-0.450000X-0.350000X0.450000X-0.350000X0.450000X0.350000X0*%
%TD*%
%TA.AperFunction,SMDPad,CuDef*%
%ADD15RoundRect,0.150000X-0.825000X-0.150000X0.825000X-0.150000X0.825000X0.150000X-0.825000X0.150000X0*%
%TD*%
%TA.AperFunction,Conductor*%
%ADD16C,0.200000*%
%TD*%
G04 APERTURE END LIST*
D10*
%TO.P,R2,2*%
%TO.N,Net-(R2-Pad2)*%
X123500000Y-82000000D03*
%TO.P,R2,1*%
%TO.N,Net-(U1A--)*%
X123500000Y-84000000D03*
%TD*%
D11*
%TO.P,J3,1,Pin_1_1*%
%TO.N,+5V*%
X108000000Y-105367500D03*
D12*
%TO.P,J3,2,Pin_2_2*%
%TO.N,GND*%
X113000000Y-105367500D03*
%TD*%
D11*
%TO.P,J2,1,Pin_1_1*%
%TO.N,/Vout*%
X147000000Y-85500000D03*
D12*
%TO.P,J2,2,Pin_2_2*%
%TO.N,GND*%
X152000000Y-85500000D03*
%TD*%
D13*
%TO.P,C1,1*%
%TO.N,/Vout*%
X139000000Y-85500000D03*
%TO.P,C1,2*%
%TO.N,GND*%
X139000000Y-87575000D03*
%TD*%
D14*
%TO.P,R1,1*%
%TO.N,Net-(U1A--)*%
X118500000Y-82000000D03*
%TO.P,R1,2*%
%TO.N,GND*%
X118500000Y-84000000D03*
%TD*%
D13*
%TO.P,C2,1*%
%TO.N,+5V*%
X120000000Y-98962500D03*
%TO.P,C2,2*%
%TO.N,GND*%
X120000000Y-101037500D03*
%TD*%
D11*
%TO.P,J1,1,Pin_1_1*%
%TO.N,/Vin*%
X108000000Y-85367500D03*
D12*
%TO.P,J1,2,Pin_2_2*%
%TO.N,GND*%
X113000000Y-85367500D03*
%TD*%
D15*
%TO.P,U1,1*%
%TO.N,Net-(R2-Pad2)*%
X128550000Y-80230000D03*
%TO.P,U1,2,-_2*%
%TO.N,Net-(U1A--)*%
X128550000Y-81500000D03*
%TO.P,U1,3,+_3*%
%TO.N,/Vin*%
X128550000Y-82770000D03*
%TO.P,U1,4,V-_4*%
%TO.N,GND*%
X128550000Y-84040000D03*
%TO.P,U1,5,+_5*%
X133500000Y-84040000D03*
%TO.P,U1,6,-_6*%
X133500000Y-82770000D03*
%TO.P,U1,7*%
%TO.N,unconnected-(U1-Pad7)*%
X133500000Y-81500000D03*
%TO.P,U1,8,V+_8*%
%TO.N,+5V*%
X133500000Y-80230000D03*
%TD*%
D14*
%TO.P,R3,1*%
%TO.N,Net-(R2-Pad2)*%
X139000000Y-80000000D03*
%TO.P,R3,2*%
%TO.N,/Vout*%
X139000000Y-82000000D03*
%TD*%
%TO.N,GND*%
D16*
X118500000Y-84000000D02*
X122000000Y-87500000D01*
X125090000Y-87500000D02*
X128550000Y-84040000D01*
X122000000Y-87500000D02*
X125090000Y-87500000D01*
%TO.N,/Vin*%
X128550000Y-82770000D02*
X127575001Y-82770000D01*
X127575001Y-82770000D02*
X124345001Y-86000000D01*
X124345001Y-86000000D02*
X122084744Y-86000000D01*
X122084744Y-86000000D02*
X119184744Y-83100000D01*
X119184744Y-83100000D02*
X110267500Y-83100000D01*
X110267500Y-83100000D02*
X108000000Y-85367500D01*
%TO.N,GND*%
X128550000Y-84040000D02*
X133500000Y-84040000D01*
%TO.N,Net-(R2-Pad2)*%
X128550000Y-80230000D02*
X129150000Y-80830000D01*
X129150000Y-80830000D02*
X138170000Y-80830000D01*
X138170000Y-80830000D02*
X139000000Y-80000000D01*
%TO.N,GND*%
X133500000Y-82770000D02*
X133500000Y-84040000D01*
X133500000Y-84040000D02*
X135465000Y-84040000D01*
X135465000Y-84040000D02*
X139000000Y-87575000D01*
X139000000Y-87575000D02*
X149925000Y-87575000D01*
X149925000Y-87575000D02*
X152000000Y-85500000D01*
%TO.N,/Vout*%
X139000000Y-85500000D02*
X147000000Y-85500000D01*
X139000000Y-82000000D02*
X139000000Y-85500000D01*
%TO.N,Net-(U1A--)*%
X123500000Y-84000000D02*
X126000000Y-81500000D01*
X126000000Y-81500000D02*
X128550000Y-81500000D01*
%TO.N,Net-(R2-Pad2)*%
X123500000Y-82000000D02*
X125270000Y-80230000D01*
X125270000Y-80230000D02*
X128550000Y-80230000D01*
%TO.N,Net-(U1A--)*%
X118500000Y-82000000D02*
X119000000Y-82000000D01*
X119000000Y-82000000D02*
X121000000Y-84000000D01*
X121000000Y-84000000D02*
X123500000Y-84000000D01*
%TO.N,GND*%
X113000000Y-85367500D02*
X117132500Y-85367500D01*
X117132500Y-85367500D02*
X118500000Y-84000000D01*
%TO.N,+5V*%
X103000000Y-79000000D02*
X103000000Y-99000000D01*
X133000000Y-79730000D02*
X133000000Y-76500000D01*
X105500000Y-76500000D02*
X103000000Y-79000000D01*
X133000000Y-76500000D02*
X105500000Y-76500000D01*
X133500000Y-80230000D02*
X133000000Y-79730000D01*
X103000000Y-99000000D02*
X103037500Y-98962500D01*
X103037500Y-98962500D02*
X108537500Y-98962500D01*
%TO.N,GND*%
X122000000Y-98000000D02*
X122000000Y-101000000D01*
X118500000Y-94500000D02*
X122000000Y-98000000D01*
X121500000Y-101000000D02*
X121462500Y-101037500D01*
X118500000Y-84000000D02*
X118500000Y-94500000D01*
X122000000Y-101000000D02*
X121500000Y-101000000D01*
X121462500Y-101037500D02*
X120000000Y-101037500D01*
%TO.N,+5V*%
X108000000Y-105367500D02*
X108000000Y-99500000D01*
X108000000Y-99500000D02*
X108537500Y-98962500D01*
X108537500Y-98962500D02*
X120000000Y-98962500D01*
%TO.N,GND*%
X119867500Y-105367500D02*
X120000000Y-105500000D01*
X113000000Y-105367500D02*
X119867500Y-105367500D01*
X120000000Y-105500000D02*
X120000000Y-101037500D01*
%TD*%
%TA.AperFunction,Conductor*%
%TO.N,GND*%
G36*
X158942539Y-74520185D02*
G01*
X158988294Y-74572989D01*
X158999500Y-74624500D01*
X158999500Y-113375500D01*
X158979815Y-113442539D01*
X158927011Y-113488294D01*
X158875500Y-113499500D01*
X99624500Y-113499500D01*
X99557461Y-113479815D01*
X99511706Y-113427011D01*
X99500500Y-113375500D01*
X99500500Y-99079054D01*
X102399498Y-99079054D01*
X102440424Y-99231789D01*
X102440425Y-99231790D01*
X102461455Y-99268214D01*
X102461456Y-99268216D01*
X102519475Y-99368709D01*
X102519481Y-99368717D01*
X102631284Y-99480520D01*
X102718095Y-99530639D01*
X102718097Y-99530641D01*
X102756151Y-99552611D01*
X102768215Y-99559577D01*
X102920943Y-99600501D01*
X102920946Y-99600501D01*
X103079055Y-99600501D01*
X103079057Y-99600501D01*
X103203242Y-99567224D01*
X103235336Y-99563000D01*
X107275500Y-99563000D01*
X107342539Y-99582685D01*
X107388294Y-99635489D01*
X107399500Y-99687000D01*
X107399500Y-103243000D01*
X107379815Y-103310039D01*
X107327011Y-103355794D01*
X107275500Y-103367000D01*
X106699982Y-103367000D01*
X106597203Y-103377500D01*
X106597202Y-103377501D01*
X106524114Y-103401720D01*
X106430667Y-103432685D01*
X106430662Y-103432687D01*
X106281342Y-103524789D01*
X106157289Y-103648842D01*
X106065187Y-103798162D01*
X106065186Y-103798165D01*
X106010001Y-103964702D01*
X106010001Y-103964703D01*
X106010000Y-103964703D01*
X105999500Y-104067482D01*
X105999500Y-106667517D01*
X106010000Y-106770296D01*
X106065185Y-106936832D01*
X106065187Y-106936837D01*
X106071714Y-106947419D01*
X106157288Y-107086156D01*
X106281344Y-107210212D01*
X106430665Y-107302314D01*
X106597202Y-107357499D01*
X106699990Y-107368000D01*
X106699995Y-107368000D01*
X109300005Y-107368000D01*
X109300010Y-107368000D01*
X109402798Y-107357499D01*
X109569335Y-107302314D01*
X109718656Y-107210212D01*
X109842712Y-107086156D01*
X109934814Y-106936835D01*
X109989999Y-106770298D01*
X110000500Y-106667510D01*
X110000500Y-105236405D01*
X111000000Y-105236405D01*
X111000000Y-105498594D01*
X111034220Y-105758509D01*
X111034222Y-105758520D01*
X111102075Y-106011755D01*
X111202404Y-106253971D01*
X111202409Y-106253982D01*
X111333488Y-106481016D01*
X111333494Y-106481024D01*
X111420080Y-106593865D01*
X112398958Y-105614987D01*
X112423978Y-105675390D01*
X112495112Y-105781851D01*
X112585649Y-105872388D01*
X112692110Y-105943522D01*
X112752511Y-105968541D01*
X111773633Y-106947417D01*
X111773633Y-106947418D01*
X111886475Y-107034005D01*
X111886483Y-107034011D01*
X112113517Y-107165090D01*
X112113528Y-107165095D01*
X112355744Y-107265424D01*
X112608979Y-107333277D01*
X112608990Y-107333279D01*
X112868905Y-107367499D01*
X112868920Y-107367500D01*
X113131080Y-107367500D01*
X113131094Y-107367499D01*
X113391009Y-107333279D01*
X113391020Y-107333277D01*
X113644255Y-107265424D01*
X113886471Y-107165095D01*
X113886482Y-107165090D01*
X114113516Y-107034011D01*
X114113534Y-107033999D01*
X114226365Y-106947419D01*
X114226365Y-106947417D01*
X113247488Y-105968541D01*
X113307890Y-105943522D01*
X113414351Y-105872388D01*
X113504888Y-105781851D01*
X113576022Y-105675390D01*
X113601041Y-105614989D01*
X114579917Y-106593865D01*
X114579919Y-106593865D01*
X114666499Y-106481034D01*
X114666511Y-106481016D01*
X114797590Y-106253982D01*
X114797595Y-106253971D01*
X114897924Y-106011755D01*
X114965777Y-105758520D01*
X114965779Y-105758509D01*
X114999999Y-105498594D01*
X115000000Y-105498580D01*
X115000000Y-105236419D01*
X114999999Y-105236405D01*
X114965779Y-104976490D01*
X114965777Y-104976479D01*
X114897924Y-104723244D01*
X114797595Y-104481028D01*
X114797590Y-104481017D01*
X114666511Y-104253983D01*
X114666505Y-104253975D01*
X114579918Y-104141133D01*
X114579917Y-104141133D01*
X113601040Y-105120009D01*
X113576022Y-105059610D01*
X113504888Y-104953149D01*
X113414351Y-104862612D01*
X113307890Y-104791478D01*
X113247487Y-104766457D01*
X114226365Y-103787580D01*
X114113524Y-103700994D01*
X114113516Y-103700988D01*
X113886482Y-103569909D01*
X113886471Y-103569904D01*
X113644255Y-103469575D01*
X113391020Y-103401722D01*
X113391009Y-103401720D01*
X113131094Y-103367500D01*
X112868905Y-103367500D01*
X112608990Y-103401720D01*
X112608979Y-103401722D01*
X112355744Y-103469575D01*
X112113528Y-103569904D01*
X112113517Y-103569909D01*
X111886471Y-103700996D01*
X111773633Y-103787579D01*
X111773633Y-103787580D01*
X112752511Y-104766458D01*
X112692110Y-104791478D01*
X112585649Y-104862612D01*
X112495112Y-104953149D01*
X112423978Y-105059610D01*
X112398958Y-105120011D01*
X111420080Y-104141133D01*
X111420079Y-104141133D01*
X111333496Y-104253971D01*
X111202409Y-104481017D01*
X111202404Y-104481028D01*
X111102075Y-104723244D01*
X111034222Y-104976479D01*
X111034220Y-104976490D01*
X111000000Y-105236405D01*
X110000500Y-105236405D01*
X110000500Y-104067490D01*
X109989999Y-103964702D01*
X109934814Y-103798165D01*
X109842712Y-103648844D01*
X109718656Y-103524788D01*
X109569335Y-103432686D01*
X109402798Y-103377501D01*
X109402796Y-103377500D01*
X109300017Y-103367000D01*
X109300010Y-103367000D01*
X108724500Y-103367000D01*
X108657461Y-103347315D01*
X108611706Y-103294511D01*
X108600500Y-103243000D01*
X108600500Y-101424986D01*
X118775001Y-101424986D01*
X118785494Y-101527697D01*
X118840641Y-101694119D01*
X118840643Y-101694124D01*
X118932684Y-101843345D01*
X119056654Y-101967315D01*
X119205875Y-102059356D01*
X119205880Y-102059358D01*
X119372302Y-102114505D01*
X119372309Y-102114506D01*
X119475019Y-102124999D01*
X119749999Y-102124999D01*
X120250000Y-102124999D01*
X120524972Y-102124999D01*
X120524986Y-102124998D01*
X120627697Y-102114505D01*
X120794119Y-102059358D01*
X120794124Y-102059356D01*
X120943345Y-101967315D01*
X121067315Y-101843345D01*
X121159356Y-101694124D01*
X121159358Y-101694119D01*
X121214505Y-101527697D01*
X121214506Y-101527690D01*
X121224999Y-101424986D01*
X121225000Y-101424973D01*
X121225000Y-101287500D01*
X120250000Y-101287500D01*
X120250000Y-102124999D01*
X119749999Y-102124999D01*
X119750000Y-102124998D01*
X119750000Y-101287500D01*
X118775001Y-101287500D01*
X118775001Y-101424986D01*
X108600500Y-101424986D01*
X108600500Y-99800097D01*
X108620185Y-99733058D01*
X108636814Y-99712421D01*
X108749918Y-99599317D01*
X108811240Y-99565834D01*
X108837598Y-99563000D01*
X118736232Y-99563000D01*
X118803271Y-99582685D01*
X118841769Y-99621901D01*
X118932288Y-99768656D01*
X119056344Y-99892712D01*
X119059628Y-99894737D01*
X119059653Y-99894753D01*
X119061445Y-99896746D01*
X119062011Y-99897193D01*
X119061934Y-99897289D01*
X119106379Y-99946699D01*
X119117603Y-100015661D01*
X119089761Y-100079744D01*
X119059665Y-100105826D01*
X119056660Y-100107679D01*
X119056655Y-100107683D01*
X118932684Y-100231654D01*
X118840643Y-100380875D01*
X118840641Y-100380880D01*
X118785494Y-100547302D01*
X118785493Y-100547309D01*
X118775000Y-100650013D01*
X118775000Y-100787500D01*
X121224999Y-100787500D01*
X121224999Y-100650028D01*
X121224998Y-100650013D01*
X121214505Y-100547302D01*
X121159358Y-100380880D01*
X121159356Y-100380875D01*
X121067315Y-100231654D01*
X120943344Y-100107683D01*
X120943341Y-100107681D01*
X120940339Y-100105829D01*
X120938713Y-100104021D01*
X120937677Y-100103202D01*
X120937817Y-100103024D01*
X120893617Y-100053880D01*
X120882397Y-99984917D01*
X120910243Y-99920836D01*
X120940344Y-99894754D01*
X120943656Y-99892712D01*
X121067712Y-99768656D01*
X121159814Y-99619334D01*
X121214999Y-99452797D01*
X121225500Y-99350009D01*
X121225499Y-98574992D01*
X121214999Y-98472203D01*
X121159814Y-98305666D01*
X121067712Y-98156344D01*
X120943656Y-98032288D01*
X120794334Y-97940186D01*
X120627797Y-97885001D01*
X120627795Y-97885000D01*
X120525010Y-97874500D01*
X119474998Y-97874500D01*
X119474980Y-97874501D01*
X119372203Y-97885000D01*
X119372200Y-97885001D01*
X119205668Y-97940185D01*
X119205663Y-97940187D01*
X119056342Y-98032289D01*
X118932289Y-98156342D01*
X118932288Y-98156344D01*
X118850151Y-98289511D01*
X118841771Y-98303097D01*
X118789823Y-98349821D01*
X118736232Y-98362000D01*
X108624170Y-98362000D01*
X108624154Y-98361999D01*
X108616558Y-98361999D01*
X108458443Y-98361999D01*
X108450847Y-98361999D01*
X108450831Y-98362000D01*
X103724500Y-98362000D01*
X103657461Y-98342315D01*
X103611706Y-98289511D01*
X103600500Y-98238000D01*
X103600500Y-87962486D01*
X137775001Y-87962486D01*
X137785494Y-88065197D01*
X137840641Y-88231619D01*
X137840643Y-88231624D01*
X137932684Y-88380845D01*
X138056654Y-88504815D01*
X138205875Y-88596856D01*
X138205880Y-88596858D01*
X138372302Y-88652005D01*
X138372309Y-88652006D01*
X138475019Y-88662499D01*
X138749999Y-88662499D01*
X139250000Y-88662499D01*
X139524972Y-88662499D01*
X139524986Y-88662498D01*
X139627697Y-88652005D01*
X139794119Y-88596858D01*
X139794124Y-88596856D01*
X139943345Y-88504815D01*
X140067315Y-88380845D01*
X140159356Y-88231624D01*
X140159358Y-88231619D01*
X140214505Y-88065197D01*
X140214506Y-88065190D01*
X140224999Y-87962486D01*
X140225000Y-87962473D01*
X140225000Y-87825000D01*
X139250000Y-87825000D01*
X139250000Y-88662499D01*
X138749999Y-88662499D01*
X138750000Y-88662498D01*
X138750000Y-87825000D01*
X137775001Y-87825000D01*
X137775001Y-87962486D01*
X103600500Y-87962486D01*
X103600500Y-79300097D01*
X103620185Y-79233058D01*
X103636819Y-79212416D01*
X105712416Y-77136819D01*
X105773739Y-77103334D01*
X105800097Y-77100500D01*
X132275500Y-77100500D01*
X132342539Y-77120185D01*
X132388294Y-77172989D01*
X132399500Y-77224500D01*
X132399500Y-79416458D01*
X132379815Y-79483497D01*
X132338622Y-79523190D01*
X132273135Y-79561919D01*
X132273129Y-79561923D01*
X132156923Y-79678129D01*
X132156919Y-79678135D01*
X132073255Y-79819603D01*
X132073254Y-79819606D01*
X132027402Y-79977426D01*
X132027401Y-79977432D01*
X132024500Y-80014298D01*
X132024500Y-80105500D01*
X132004815Y-80172539D01*
X131952011Y-80218294D01*
X131900500Y-80229500D01*
X130149500Y-80229500D01*
X130082461Y-80209815D01*
X130036706Y-80157011D01*
X130025500Y-80105500D01*
X130025500Y-80014313D01*
X130025499Y-80014298D01*
X130022598Y-79977432D01*
X130022597Y-79977426D01*
X129976745Y-79819606D01*
X129976744Y-79819603D01*
X129976744Y-79819602D01*
X129893081Y-79678135D01*
X129893080Y-79678134D01*
X129893076Y-79678129D01*
X129776870Y-79561923D01*
X129776862Y-79561917D01*
X129667431Y-79497200D01*
X129635398Y-79478256D01*
X129635397Y-79478255D01*
X129635396Y-79478255D01*
X129635393Y-79478254D01*
X129477573Y-79432402D01*
X129477567Y-79432401D01*
X129440701Y-79429500D01*
X129440694Y-79429500D01*
X127659306Y-79429500D01*
X127659298Y-79429500D01*
X127622432Y-79432401D01*
X127622426Y-79432402D01*
X127464606Y-79478254D01*
X127464603Y-79478255D01*
X127323137Y-79561917D01*
X127323129Y-79561923D01*
X127291874Y-79593180D01*
X127230552Y-79626666D01*
X127204192Y-79629500D01*
X125356669Y-79629500D01*
X125356653Y-79629499D01*
X125349057Y-79629499D01*
X125190943Y-79629499D01*
X125076397Y-79660192D01*
X125038214Y-79670423D01*
X125027682Y-79676504D01*
X125024869Y-79678129D01*
X125024860Y-79678134D01*
X125024857Y-79678135D01*
X124901290Y-79749475D01*
X124901282Y-79749481D01*
X124789478Y-79861286D01*
X123787582Y-80863181D01*
X123726259Y-80896666D01*
X123699901Y-80899500D01*
X122999998Y-80899500D01*
X122999980Y-80899501D01*
X122897203Y-80910000D01*
X122897200Y-80910001D01*
X122730668Y-80965185D01*
X122730663Y-80965187D01*
X122581342Y-81057289D01*
X122457289Y-81181342D01*
X122365187Y-81330663D01*
X122365186Y-81330666D01*
X122310001Y-81497203D01*
X122310001Y-81497204D01*
X122310000Y-81497204D01*
X122299500Y-81599983D01*
X122299500Y-82400001D01*
X122299501Y-82400019D01*
X122310000Y-82502796D01*
X122310001Y-82502799D01*
X122365185Y-82669331D01*
X122365187Y-82669336D01*
X122457289Y-82818657D01*
X122550951Y-82912319D01*
X122584436Y-82973642D01*
X122579452Y-83043334D01*
X122550951Y-83087681D01*
X122457289Y-83181342D01*
X122457288Y-83181344D01*
X122365880Y-83329542D01*
X122361395Y-83336813D01*
X122359600Y-83335706D01*
X122320313Y-83380337D01*
X122254092Y-83399500D01*
X121300097Y-83399500D01*
X121233058Y-83379815D01*
X121212416Y-83363181D01*
X119736818Y-81887583D01*
X119703333Y-81826260D01*
X119700499Y-81799902D01*
X119700499Y-81599998D01*
X119700498Y-81599981D01*
X119689999Y-81497203D01*
X119689998Y-81497200D01*
X119667896Y-81430500D01*
X119634814Y-81330666D01*
X119542712Y-81181344D01*
X119418656Y-81057288D01*
X119269334Y-80965186D01*
X119102797Y-80910001D01*
X119102795Y-80910000D01*
X119000010Y-80899500D01*
X117999998Y-80899500D01*
X117999980Y-80899501D01*
X117897203Y-80910000D01*
X117897200Y-80910001D01*
X117730668Y-80965185D01*
X117730663Y-80965187D01*
X117581342Y-81057289D01*
X117457289Y-81181342D01*
X117365187Y-81330663D01*
X117365186Y-81330666D01*
X117310001Y-81497203D01*
X117310001Y-81497204D01*
X117310000Y-81497204D01*
X117299500Y-81599983D01*
X117299500Y-81599996D01*
X117299501Y-82375500D01*
X117279817Y-82442539D01*
X117227013Y-82488294D01*
X117175501Y-82499500D01*
X110346557Y-82499500D01*
X110188442Y-82499500D01*
X110035715Y-82540423D01*
X110011657Y-82554313D01*
X110002538Y-82559578D01*
X110002537Y-82559577D01*
X109898787Y-82619477D01*
X109898782Y-82619481D01*
X109786980Y-82731284D01*
X109786978Y-82731286D01*
X109474931Y-83043334D01*
X109187584Y-83330681D01*
X109126261Y-83364166D01*
X109099903Y-83367000D01*
X106699982Y-83367000D01*
X106597203Y-83377500D01*
X106597202Y-83377501D01*
X106588644Y-83380337D01*
X106430667Y-83432685D01*
X106430662Y-83432687D01*
X106281342Y-83524789D01*
X106157289Y-83648842D01*
X106065187Y-83798162D01*
X106065185Y-83798167D01*
X106040057Y-83874000D01*
X106010001Y-83964702D01*
X106010001Y-83964703D01*
X106010000Y-83964703D01*
X105999500Y-84067482D01*
X105999500Y-86667517D01*
X106010000Y-86770296D01*
X106065185Y-86936832D01*
X106065187Y-86936837D01*
X106071714Y-86947419D01*
X106157288Y-87086156D01*
X106281344Y-87210212D01*
X106430665Y-87302314D01*
X106597202Y-87357499D01*
X106699990Y-87368000D01*
X106699995Y-87368000D01*
X109300005Y-87368000D01*
X109300010Y-87368000D01*
X109402798Y-87357499D01*
X109569335Y-87302314D01*
X109718656Y-87210212D01*
X109842712Y-87086156D01*
X109934814Y-86936835D01*
X109989999Y-86770298D01*
X110000500Y-86667510D01*
X110000500Y-84267597D01*
X110020185Y-84200558D01*
X110036819Y-84179916D01*
X110479916Y-83736819D01*
X110541239Y-83703334D01*
X110567597Y-83700500D01*
X111646947Y-83700500D01*
X111713986Y-83720185D01*
X111759741Y-83772989D01*
X111759898Y-83773845D01*
X112752511Y-84766458D01*
X112692110Y-84791478D01*
X112585649Y-84862612D01*
X112495112Y-84953149D01*
X112423978Y-85059610D01*
X112398958Y-85120011D01*
X111420080Y-84141133D01*
X111420079Y-84141133D01*
X111333496Y-84253971D01*
X111202409Y-84481017D01*
X111202404Y-84481028D01*
X111102075Y-84723244D01*
X111034222Y-84976479D01*
X111034220Y-84976490D01*
X111000000Y-85236405D01*
X111000000Y-85498594D01*
X111034220Y-85758509D01*
X111034222Y-85758520D01*
X111102075Y-86011755D01*
X111202404Y-86253971D01*
X111202409Y-86253982D01*
X111333488Y-86481016D01*
X111333494Y-86481024D01*
X111420080Y-86593865D01*
X112398958Y-85614987D01*
X112423978Y-85675390D01*
X112495112Y-85781851D01*
X112585649Y-85872388D01*
X112692110Y-85943522D01*
X112752511Y-85968541D01*
X111773633Y-86947417D01*
X111773633Y-86947418D01*
X111886475Y-87034005D01*
X111886483Y-87034011D01*
X112113517Y-87165090D01*
X112113528Y-87165095D01*
X112355744Y-87265424D01*
X112608979Y-87333277D01*
X112608990Y-87333279D01*
X112868905Y-87367499D01*
X112868920Y-87367500D01*
X113131080Y-87367500D01*
X113131094Y-87367499D01*
X113391009Y-87333279D01*
X113391020Y-87333277D01*
X113644255Y-87265424D01*
X113886471Y-87165095D01*
X113886482Y-87165090D01*
X114113516Y-87034011D01*
X114113534Y-87033999D01*
X114226365Y-86947419D01*
X114226365Y-86947417D01*
X113247488Y-85968541D01*
X113307890Y-85943522D01*
X113414351Y-85872388D01*
X113504888Y-85781851D01*
X113576022Y-85675390D01*
X113601041Y-85614989D01*
X114579917Y-86593865D01*
X114579919Y-86593865D01*
X114666499Y-86481034D01*
X114666511Y-86481016D01*
X114797590Y-86253982D01*
X114797595Y-86253971D01*
X114897924Y-86011755D01*
X114965777Y-85758520D01*
X114965779Y-85758509D01*
X114999999Y-85498594D01*
X115000000Y-85498580D01*
X115000000Y-85236419D01*
X114999999Y-85236405D01*
X114965779Y-84976490D01*
X114965777Y-84976479D01*
X114897924Y-84723244D01*
X114797595Y-84481028D01*
X114797590Y-84481017D01*
X114750806Y-84399986D01*
X117300001Y-84399986D01*
X117310494Y-84502697D01*
X117365641Y-84669119D01*
X117365643Y-84669124D01*
X117457684Y-84818345D01*
X117581654Y-84942315D01*
X117730875Y-85034356D01*
X117730880Y-85034358D01*
X117897302Y-85089505D01*
X117897309Y-85089506D01*
X118000019Y-85099999D01*
X118249999Y-85099999D01*
X118250000Y-85099998D01*
X118250000Y-84250000D01*
X117300001Y-84250000D01*
X117300001Y-84399986D01*
X114750806Y-84399986D01*
X114670353Y-84260638D01*
X114670352Y-84260636D01*
X114666511Y-84253983D01*
X114666505Y-84253975D01*
X114579918Y-84141133D01*
X114579917Y-84141133D01*
X113601040Y-85120009D01*
X113576022Y-85059610D01*
X113504888Y-84953149D01*
X113414351Y-84862612D01*
X113307890Y-84791478D01*
X113247487Y-84766457D01*
X114243150Y-83770795D01*
X114244576Y-83764425D01*
X114294275Y-83715315D01*
X114353052Y-83700500D01*
X117199138Y-83700500D01*
X117266177Y-83720185D01*
X117286819Y-83736819D01*
X117300000Y-83750000D01*
X118376000Y-83750000D01*
X118443039Y-83769685D01*
X118488794Y-83822489D01*
X118500000Y-83874000D01*
X118500000Y-84000000D01*
X118626000Y-84000000D01*
X118693039Y-84019685D01*
X118738794Y-84072489D01*
X118750000Y-84124000D01*
X118750000Y-85099999D01*
X118999972Y-85099999D01*
X118999986Y-85099998D01*
X119102697Y-85089505D01*
X119269119Y-85034358D01*
X119269124Y-85034356D01*
X119418345Y-84942315D01*
X119542315Y-84818345D01*
X119634356Y-84669124D01*
X119634357Y-84669120D01*
X119638389Y-84656953D01*
X119678158Y-84599506D01*
X119742672Y-84572679D01*
X119811449Y-84584990D01*
X119843778Y-84608269D01*
X121599883Y-86364374D01*
X121599893Y-86364385D01*
X121604223Y-86368715D01*
X121604224Y-86368716D01*
X121716028Y-86480520D01*
X121716030Y-86480521D01*
X121716034Y-86480524D01*
X121788418Y-86522314D01*
X121852960Y-86559577D01*
X121959033Y-86587999D01*
X122005686Y-86600500D01*
X122005687Y-86600500D01*
X124258332Y-86600500D01*
X124258348Y-86600501D01*
X124265944Y-86600501D01*
X124424055Y-86600501D01*
X124424058Y-86600501D01*
X124576786Y-86559577D01*
X124648799Y-86518000D01*
X124713717Y-86480520D01*
X124825521Y-86368716D01*
X124825521Y-86368714D01*
X124835725Y-86358511D01*
X124835729Y-86358506D01*
X126889984Y-84304250D01*
X126951305Y-84270767D01*
X127020997Y-84275751D01*
X127076930Y-84317623D01*
X127096739Y-84357338D01*
X127123716Y-84450193D01*
X127123717Y-84450196D01*
X127207314Y-84591552D01*
X127207321Y-84591561D01*
X127323438Y-84707678D01*
X127323447Y-84707685D01*
X127464803Y-84791282D01*
X127464806Y-84791283D01*
X127622504Y-84837099D01*
X127622510Y-84837100D01*
X127659350Y-84839999D01*
X127659366Y-84840000D01*
X128300000Y-84840000D01*
X128800000Y-84840000D01*
X129440634Y-84840000D01*
X129440649Y-84839999D01*
X129477489Y-84837100D01*
X129477495Y-84837099D01*
X129635193Y-84791283D01*
X129635196Y-84791282D01*
X129776552Y-84707685D01*
X129776561Y-84707678D01*
X129892678Y-84591561D01*
X129892685Y-84591552D01*
X129976281Y-84450198D01*
X130022100Y-84292486D01*
X130022295Y-84290001D01*
X132027704Y-84290001D01*
X132027899Y-84292486D01*
X132073718Y-84450198D01*
X132157314Y-84591552D01*
X132157321Y-84591561D01*
X132273438Y-84707678D01*
X132273447Y-84707685D01*
X132414803Y-84791282D01*
X132414806Y-84791283D01*
X132572504Y-84837099D01*
X132572510Y-84837100D01*
X132609350Y-84839999D01*
X132609366Y-84840000D01*
X133250000Y-84840000D01*
X133750000Y-84840000D01*
X134390634Y-84840000D01*
X134390649Y-84839999D01*
X134427489Y-84837100D01*
X134427495Y-84837099D01*
X134585193Y-84791283D01*
X134585196Y-84791282D01*
X134726552Y-84707685D01*
X134726561Y-84707678D01*
X134842678Y-84591561D01*
X134842685Y-84591552D01*
X134926281Y-84450198D01*
X134972100Y-84292486D01*
X134972295Y-84290001D01*
X134972295Y-84290000D01*
X133750000Y-84290000D01*
X133750000Y-84840000D01*
X133250000Y-84840000D01*
X133250000Y-84290000D01*
X132027705Y-84290000D01*
X132027704Y-84290001D01*
X130022295Y-84290001D01*
X130022295Y-84290000D01*
X128800000Y-84290000D01*
X128800000Y-84840000D01*
X128300000Y-84840000D01*
X128300000Y-84164000D01*
X128319685Y-84096961D01*
X128372489Y-84051206D01*
X128424000Y-84040000D01*
X128550000Y-84040000D01*
X128550000Y-83914000D01*
X128569685Y-83846961D01*
X128622489Y-83801206D01*
X128674000Y-83790000D01*
X130022295Y-83790000D01*
X130022295Y-83789998D01*
X130022100Y-83787513D01*
X129976281Y-83629801D01*
X129892685Y-83488447D01*
X129887900Y-83482278D01*
X129890366Y-83480364D01*
X129863802Y-83431776D01*
X129868749Y-83362082D01*
X129889856Y-83329232D01*
X129888301Y-83328026D01*
X129893077Y-83321868D01*
X129893081Y-83321865D01*
X129976744Y-83180398D01*
X130019040Y-83034815D01*
X130022597Y-83022573D01*
X130022598Y-83022567D01*
X130022800Y-83020001D01*
X132027704Y-83020001D01*
X132027899Y-83022486D01*
X132073718Y-83180198D01*
X132157314Y-83321552D01*
X132162100Y-83327722D01*
X132159753Y-83329542D01*
X132186564Y-83378642D01*
X132181580Y-83448334D01*
X132160541Y-83481069D01*
X132162100Y-83482278D01*
X132157314Y-83488447D01*
X132073718Y-83629801D01*
X132027899Y-83787513D01*
X132027704Y-83789998D01*
X132027705Y-83790000D01*
X133250000Y-83790000D01*
X133750000Y-83790000D01*
X134972295Y-83790000D01*
X134972295Y-83789998D01*
X134972100Y-83787513D01*
X134926281Y-83629801D01*
X134842685Y-83488447D01*
X134837900Y-83482278D01*
X134840252Y-83480453D01*
X134813445Y-83431405D01*
X134818402Y-83361712D01*
X134839465Y-83328936D01*
X134837900Y-83327722D01*
X134842685Y-83321552D01*
X134926281Y-83180198D01*
X134972100Y-83022486D01*
X134972295Y-83020001D01*
X134972295Y-83020000D01*
X133750000Y-83020000D01*
X133750000Y-83790000D01*
X133250000Y-83790000D01*
X133250000Y-83020000D01*
X132027705Y-83020000D01*
X132027704Y-83020001D01*
X130022800Y-83020001D01*
X130025500Y-82985694D01*
X130025500Y-82554306D01*
X130022598Y-82517431D01*
X130018346Y-82502797D01*
X129981363Y-82375500D01*
X129976744Y-82359602D01*
X129893081Y-82218135D01*
X129893078Y-82218132D01*
X129888298Y-82211969D01*
X129890750Y-82210066D01*
X129864155Y-82161421D01*
X129869104Y-82091726D01*
X129889940Y-82059304D01*
X129888298Y-82058031D01*
X129893075Y-82051870D01*
X129893081Y-82051865D01*
X129976744Y-81910398D01*
X130022598Y-81752569D01*
X130025500Y-81715694D01*
X130025500Y-81554500D01*
X130045185Y-81487461D01*
X130097989Y-81441706D01*
X130149500Y-81430500D01*
X131900500Y-81430500D01*
X131967539Y-81450185D01*
X132013294Y-81502989D01*
X132024500Y-81554500D01*
X132024500Y-81715701D01*
X132027401Y-81752567D01*
X132027402Y-81752573D01*
X132073254Y-81910393D01*
X132073255Y-81910396D01*
X132156917Y-82051862D01*
X132161702Y-82058031D01*
X132159369Y-82059840D01*
X132186210Y-82108995D01*
X132181226Y-82178687D01*
X132160470Y-82211021D01*
X132162097Y-82212283D01*
X132157313Y-82218449D01*
X132073718Y-82359801D01*
X132027899Y-82517513D01*
X132027704Y-82519998D01*
X132027705Y-82520000D01*
X134972295Y-82520000D01*
X134972295Y-82519998D01*
X134972100Y-82517513D01*
X134926281Y-82359801D01*
X134842685Y-82218447D01*
X134837900Y-82212278D01*
X134840366Y-82210364D01*
X134813802Y-82161776D01*
X134818749Y-82092082D01*
X134839856Y-82059232D01*
X134838301Y-82058026D01*
X134843077Y-82051868D01*
X134843081Y-82051865D01*
X134926744Y-81910398D01*
X134972598Y-81752569D01*
X134975500Y-81715694D01*
X134975500Y-81554500D01*
X134995185Y-81487461D01*
X135047989Y-81441706D01*
X135099500Y-81430500D01*
X137679502Y-81430500D01*
X137746541Y-81450185D01*
X137792296Y-81502989D01*
X137802860Y-81567103D01*
X137799500Y-81599983D01*
X137799500Y-82400001D01*
X137799501Y-82400019D01*
X137810000Y-82502796D01*
X137810001Y-82502799D01*
X137828816Y-82559577D01*
X137865186Y-82669334D01*
X137957288Y-82818656D01*
X138081344Y-82942712D01*
X138230666Y-83034814D01*
X138314505Y-83062595D01*
X138371948Y-83102366D01*
X138398772Y-83166882D01*
X138399500Y-83180300D01*
X138399500Y-84323914D01*
X138379815Y-84390953D01*
X138327011Y-84436708D01*
X138314505Y-84441620D01*
X138205666Y-84477686D01*
X138205663Y-84477687D01*
X138056342Y-84569789D01*
X137932289Y-84693842D01*
X137840187Y-84843163D01*
X137840185Y-84843168D01*
X137812349Y-84927170D01*
X137785001Y-85009703D01*
X137785001Y-85009704D01*
X137785000Y-85009704D01*
X137774500Y-85112483D01*
X137774500Y-85887501D01*
X137774501Y-85887519D01*
X137785000Y-85990296D01*
X137785001Y-85990299D01*
X137840185Y-86156831D01*
X137840187Y-86156836D01*
X137850150Y-86172989D01*
X137932288Y-86306156D01*
X138056344Y-86430212D01*
X138059628Y-86432237D01*
X138059653Y-86432253D01*
X138061445Y-86434246D01*
X138062011Y-86434693D01*
X138061934Y-86434789D01*
X138106379Y-86484199D01*
X138117603Y-86553161D01*
X138089761Y-86617244D01*
X138059665Y-86643326D01*
X138056660Y-86645179D01*
X138056655Y-86645183D01*
X137932684Y-86769154D01*
X137840643Y-86918375D01*
X137840641Y-86918380D01*
X137785494Y-87084802D01*
X137785493Y-87084809D01*
X137775000Y-87187513D01*
X137775000Y-87325000D01*
X140224999Y-87325000D01*
X140224999Y-87187528D01*
X140224998Y-87187513D01*
X140214505Y-87084802D01*
X140159358Y-86918380D01*
X140159356Y-86918375D01*
X140067315Y-86769154D01*
X139943344Y-86645183D01*
X139943341Y-86645181D01*
X139940339Y-86643329D01*
X139938713Y-86641521D01*
X139937677Y-86640702D01*
X139937817Y-86640524D01*
X139893617Y-86591380D01*
X139882397Y-86522417D01*
X139910243Y-86458336D01*
X139940344Y-86432254D01*
X139943656Y-86430212D01*
X140067712Y-86306156D01*
X140158229Y-86159402D01*
X140210177Y-86112679D01*
X140263768Y-86100500D01*
X144875500Y-86100500D01*
X144942539Y-86120185D01*
X144988294Y-86172989D01*
X144999500Y-86224500D01*
X144999500Y-86800017D01*
X145010000Y-86902796D01*
X145065185Y-87069332D01*
X145065187Y-87069337D01*
X145071714Y-87079919D01*
X145157288Y-87218656D01*
X145281344Y-87342712D01*
X145430665Y-87434814D01*
X145597202Y-87489999D01*
X145699990Y-87500500D01*
X145699995Y-87500500D01*
X148300005Y-87500500D01*
X148300010Y-87500500D01*
X148402798Y-87489999D01*
X148569335Y-87434814D01*
X148718656Y-87342712D01*
X148842712Y-87218656D01*
X148934814Y-87069335D01*
X148989999Y-86902798D01*
X149000500Y-86800010D01*
X149000500Y-85368905D01*
X150000000Y-85368905D01*
X150000000Y-85631094D01*
X150034220Y-85891009D01*
X150034222Y-85891020D01*
X150102075Y-86144255D01*
X150202404Y-86386471D01*
X150202409Y-86386482D01*
X150333488Y-86613516D01*
X150333494Y-86613524D01*
X150420080Y-86726365D01*
X151398958Y-85747487D01*
X151423978Y-85807890D01*
X151495112Y-85914351D01*
X151585649Y-86004888D01*
X151692110Y-86076022D01*
X151752511Y-86101041D01*
X150773633Y-87079917D01*
X150773633Y-87079918D01*
X150886475Y-87166505D01*
X150886483Y-87166511D01*
X151113517Y-87297590D01*
X151113528Y-87297595D01*
X151355744Y-87397924D01*
X151608979Y-87465777D01*
X151608990Y-87465779D01*
X151868905Y-87499999D01*
X151868920Y-87500000D01*
X152131080Y-87500000D01*
X152131094Y-87499999D01*
X152391009Y-87465779D01*
X152391020Y-87465777D01*
X152644255Y-87397924D01*
X152886471Y-87297595D01*
X152886482Y-87297590D01*
X153113516Y-87166511D01*
X153113534Y-87166499D01*
X153226365Y-87079919D01*
X153226365Y-87079917D01*
X152247488Y-86101041D01*
X152307890Y-86076022D01*
X152414351Y-86004888D01*
X152504888Y-85914351D01*
X152576022Y-85807890D01*
X152601041Y-85747489D01*
X153579917Y-86726365D01*
X153579919Y-86726365D01*
X153666499Y-86613534D01*
X153666511Y-86613516D01*
X153797590Y-86386482D01*
X153797595Y-86386471D01*
X153897924Y-86144255D01*
X153965777Y-85891020D01*
X153965779Y-85891009D01*
X153999999Y-85631094D01*
X154000000Y-85631080D01*
X154000000Y-85368919D01*
X153999999Y-85368905D01*
X153965779Y-85108990D01*
X153965777Y-85108979D01*
X153897924Y-84855744D01*
X153797595Y-84613528D01*
X153797590Y-84613517D01*
X153666511Y-84386483D01*
X153666505Y-84386475D01*
X153579918Y-84273633D01*
X153579917Y-84273633D01*
X152601040Y-85252509D01*
X152576022Y-85192110D01*
X152504888Y-85085649D01*
X152414351Y-84995112D01*
X152307890Y-84923978D01*
X152247487Y-84898957D01*
X153226365Y-83920080D01*
X153113524Y-83833494D01*
X153113516Y-83833488D01*
X152886482Y-83702409D01*
X152886471Y-83702404D01*
X152644255Y-83602075D01*
X152391020Y-83534222D01*
X152391009Y-83534220D01*
X152131094Y-83500000D01*
X151868905Y-83500000D01*
X151608990Y-83534220D01*
X151608979Y-83534222D01*
X151355744Y-83602075D01*
X151113528Y-83702404D01*
X151113517Y-83702409D01*
X150886471Y-83833496D01*
X150773633Y-83920079D01*
X150773633Y-83920080D01*
X151752511Y-84898958D01*
X151692110Y-84923978D01*
X151585649Y-84995112D01*
X151495112Y-85085649D01*
X151423978Y-85192110D01*
X151398958Y-85252511D01*
X150420080Y-84273633D01*
X150420079Y-84273633D01*
X150333496Y-84386471D01*
X150202409Y-84613517D01*
X150202404Y-84613528D01*
X150102075Y-84855744D01*
X150034222Y-85108979D01*
X150034220Y-85108990D01*
X150000000Y-85368905D01*
X149000500Y-85368905D01*
X149000500Y-84199990D01*
X148989999Y-84097202D01*
X148934814Y-83930665D01*
X148842712Y-83781344D01*
X148718656Y-83657288D01*
X148625890Y-83600070D01*
X148569337Y-83565187D01*
X148569332Y-83565185D01*
X148567863Y-83564698D01*
X148402798Y-83510001D01*
X148402796Y-83510000D01*
X148300017Y-83499500D01*
X148300010Y-83499500D01*
X145699990Y-83499500D01*
X145699982Y-83499500D01*
X145597203Y-83510000D01*
X145597202Y-83510001D01*
X145552578Y-83524788D01*
X145430667Y-83565185D01*
X145430662Y-83565187D01*
X145281342Y-83657289D01*
X145157289Y-83781342D01*
X145065187Y-83930662D01*
X145065186Y-83930665D01*
X145010001Y-84097202D01*
X145010001Y-84097203D01*
X145010000Y-84097203D01*
X144999500Y-84199982D01*
X144999500Y-84775500D01*
X144979815Y-84842539D01*
X144927011Y-84888294D01*
X144875500Y-84899500D01*
X140263768Y-84899500D01*
X140196729Y-84879815D01*
X140158229Y-84840597D01*
X140157861Y-84840000D01*
X140067712Y-84693844D01*
X139943656Y-84569788D01*
X139834884Y-84502697D01*
X139794336Y-84477687D01*
X139794335Y-84477686D01*
X139794334Y-84477686D01*
X139711366Y-84450193D01*
X139685495Y-84441620D01*
X139628050Y-84401847D01*
X139601228Y-84337331D01*
X139600500Y-84323914D01*
X139600500Y-83180300D01*
X139620185Y-83113261D01*
X139672989Y-83067506D01*
X139685482Y-83062599D01*
X139769334Y-83034814D01*
X139918656Y-82942712D01*
X140042712Y-82818656D01*
X140134814Y-82669334D01*
X140189999Y-82502797D01*
X140200500Y-82400009D01*
X140200499Y-81599992D01*
X140197139Y-81567103D01*
X140189999Y-81497203D01*
X140189998Y-81497200D01*
X140167896Y-81430500D01*
X140134814Y-81330666D01*
X140042712Y-81181344D01*
X139949049Y-81087681D01*
X139915564Y-81026358D01*
X139920548Y-80956666D01*
X139949049Y-80912319D01*
X139964702Y-80896666D01*
X140042712Y-80818656D01*
X140134814Y-80669334D01*
X140189999Y-80502797D01*
X140200500Y-80400009D01*
X140200499Y-79599992D01*
X140189999Y-79497203D01*
X140134814Y-79330666D01*
X140042712Y-79181344D01*
X139918656Y-79057288D01*
X139769334Y-78965186D01*
X139602797Y-78910001D01*
X139602795Y-78910000D01*
X139500010Y-78899500D01*
X138499998Y-78899500D01*
X138499980Y-78899501D01*
X138397203Y-78910000D01*
X138397200Y-78910001D01*
X138230668Y-78965185D01*
X138230663Y-78965187D01*
X138081342Y-79057289D01*
X137957289Y-79181342D01*
X137865187Y-79330663D01*
X137865186Y-79330666D01*
X137810001Y-79497203D01*
X137810001Y-79497204D01*
X137810000Y-79497204D01*
X137799500Y-79599983D01*
X137799500Y-79599991D01*
X137799500Y-79861286D01*
X137799501Y-80105500D01*
X137779817Y-80172539D01*
X137727013Y-80218294D01*
X137675501Y-80229500D01*
X135099500Y-80229500D01*
X135032461Y-80209815D01*
X134986706Y-80157011D01*
X134975500Y-80105500D01*
X134975500Y-80014313D01*
X134975499Y-80014298D01*
X134972598Y-79977432D01*
X134972597Y-79977426D01*
X134926745Y-79819606D01*
X134926744Y-79819603D01*
X134926744Y-79819602D01*
X134843081Y-79678135D01*
X134843080Y-79678134D01*
X134843076Y-79678129D01*
X134726870Y-79561923D01*
X134726862Y-79561917D01*
X134617431Y-79497200D01*
X134585398Y-79478256D01*
X134585397Y-79478255D01*
X134585396Y-79478255D01*
X134585393Y-79478254D01*
X134427573Y-79432402D01*
X134427567Y-79432401D01*
X134390701Y-79429500D01*
X134390694Y-79429500D01*
X133724500Y-79429500D01*
X133657461Y-79409815D01*
X133611706Y-79357011D01*
X133600500Y-79305500D01*
X133600500Y-76420945D01*
X133600500Y-76420943D01*
X133559577Y-76268216D01*
X133559573Y-76268209D01*
X133480524Y-76131290D01*
X133480518Y-76131282D01*
X133368717Y-76019481D01*
X133368709Y-76019475D01*
X133231790Y-75940426D01*
X133231786Y-75940424D01*
X133231784Y-75940423D01*
X133079057Y-75899500D01*
X133079056Y-75899500D01*
X105586669Y-75899500D01*
X105586653Y-75899499D01*
X105579057Y-75899499D01*
X105420943Y-75899499D01*
X105313587Y-75928265D01*
X105268210Y-75940424D01*
X105268209Y-75940425D01*
X105218096Y-75969359D01*
X105218095Y-75969360D01*
X105174689Y-75994420D01*
X105131285Y-76019479D01*
X105131282Y-76019481D01*
X102519481Y-78631282D01*
X102519479Y-78631285D01*
X102469361Y-78718094D01*
X102469359Y-78718096D01*
X102440425Y-78768209D01*
X102440424Y-78768210D01*
X102440423Y-78768215D01*
X102399499Y-78920943D01*
X102399499Y-78920945D01*
X102399499Y-79089046D01*
X102399500Y-79089059D01*
X102399500Y-98913330D01*
X102399499Y-98913348D01*
X102399499Y-99079054D01*
X102399498Y-99079054D01*
X99500500Y-99079054D01*
X99500500Y-74624500D01*
X99520185Y-74557461D01*
X99572989Y-74511706D01*
X99624500Y-74500500D01*
X158875500Y-74500500D01*
X158942539Y-74520185D01*
G37*
%TD.AperFunction*%
%TD*%
M02*
